<svg width="717" height="111" viewBox="0 0 717 111" fill="none" xmlns="http://www.w3.org/2000/svg">
<path d="M49.8386 74.2799L44.6132 84.0145L55.8003 84.0149L101.766 84.0146L105.946 74.6218L60.8817 74.6218L90.0051 16.7029L82.3713 10.5958L49.8386 74.2799Z" fill="url(#paint0_linear_368_491)"/>
<path d="M54.1558 42.2553L59.3812 32.5208L48.1941 32.5203L8.17572 32.5201L5.52383 41.9134L43.1128 41.9134L17.0848 94.4709L24.7763 100.63L54.1558 42.2553Z" fill="url(#paint1_linear_368_491)"/>
<path d="M55.1221 105.232C82.8149 105.232 105.264 82.7824 105.264 55.0896C105.264 27.3968 82.8149 4.94727 55.1221 4.94727C27.4292 4.94727 4.97974 27.3968 4.97974 55.0896C4.97974 82.7824 27.4292 105.232 55.1221 105.232Z" stroke="url(#paint2_linear_368_491)" stroke-width="9.89391" stroke-miterlimit="10"/>
<path d="M2.63177 62.6168C5.92974 69.8723 10.3226 74.5555 13.6536 78.0909C16.1791 80.771 18.9141 83.2457 21.8325 85.4916C15.8579 79.0021 11.9188 70.9019 10.5036 62.1952C9.08845 53.4884 10.2594 44.5578 13.8712 36.5101C18.7456 23.8789 28.1119 16.2078 32.2211 12.8439C45.2745 2.16503 50.2676 0.885424 52.0815 0.19285C52.3388 0.0873154 50.947 0.00816735 48.4603 0.278601C47.9459 0.34456 47.4314 0.39732 46.9301 0.476471L46.5079 0.542414C45.7626 0.654545 45.0239 0.793084 44.2917 0.938195L43.8036 1.03711C43.144 1.17562 42.4844 1.32733 41.8248 1.48563L40.974 1.70331C40.3935 1.85501 39.8262 2.01991 39.2524 2.1914L38.2828 2.49483C37.6232 2.6993 36.9636 2.91697 36.337 3.15442L35.9413 3.29951C25.4075 7.21726 16.3213 14.2584 9.8983 23.4809C3.47531 32.7034 0.0218961 43.6675 0 54.9062C0.105535 55.4668 0.22426 56.0143 0.369371 56.5486C0.994705 58.617 1.75035 60.6438 2.63177 62.6168Z" fill="url(#paint3_linear_368_491)"/>
<path d="M97.6832 86.8041C100.519 79.3375 100.691 72.9196 100.836 68.065C100.942 64.3842 100.755 60.7008 100.275 57.0498C99.907 65.8608 96.9606 74.3699 91.8016 81.5222C86.6426 88.6744 79.4979 94.1552 71.2533 97.285C58.8661 102.773 46.8483 101.572 41.5715 101.045C24.7915 99.3694 20.359 96.7442 18.5847 95.9526C18.3274 95.8405 19.2443 96.8827 21.223 98.4525C21.632 98.7691 22.0344 99.1121 22.4499 99.3957L22.7929 99.6464C23.3997 100.088 24.0131 100.517 24.6397 100.933L25.0553 101.21C25.6093 101.572 26.1766 101.922 26.7438 102.265L27.5024 102.713C28.0169 103.017 28.5379 103.301 29.0656 103.584L29.9627 104.059C30.5695 104.369 31.1829 104.679 31.8029 104.969L32.1855 105.141C42.4057 109.82 53.8109 111.267 64.8757 109.287C75.9404 107.308 86.137 101.998 94.1016 94.0662C94.4182 93.5979 94.7216 93.123 94.9921 92.6415C96.0123 90.7549 96.9112 88.8051 97.6832 86.8041Z" fill="url(#paint4_linear_368_491)"/>
<path d="M542.926 89.1501C538.039 89.1501 533.83 88.1059 530.299 86.0174C526.789 83.9075 524.077 80.9471 522.16 77.1362C520.266 73.3039 519.318 68.8148 519.318 63.6691C519.318 58.588 520.266 54.1097 522.16 50.2343C524.077 46.3588 526.746 43.3338 530.17 41.1593C533.614 38.9847 537.641 37.8975 542.248 37.8975C545.047 37.8975 547.76 38.3604 550.386 39.2862C553.013 40.212 555.371 41.6652 557.459 43.646C559.548 45.6268 561.195 48.1997 562.4 51.3646C563.606 54.508 564.209 58.3296 564.209 62.8294V66.2527H524.776V59.0186H554.746C554.746 56.478 554.23 54.2281 553.196 52.2689C552.163 50.2881 550.709 48.7271 548.836 47.586C546.985 46.4449 544.81 45.8744 542.313 45.8744C539.6 45.8744 537.231 46.5418 535.208 47.8767C533.205 49.19 531.655 50.9125 530.557 53.0439C529.481 55.1539 528.942 57.4469 528.942 59.9228V65.5745C528.942 68.8902 529.524 71.7106 530.686 74.0359C531.87 76.3611 533.518 78.1374 535.628 79.3646C537.737 80.5703 540.203 81.1731 543.023 81.1731C544.853 81.1731 546.522 80.9148 548.029 80.3981C549.536 79.8598 550.839 79.0632 551.937 78.0082C553.035 76.9532 553.874 75.6507 554.456 74.1005L563.595 75.7475C562.863 78.4388 561.55 80.7964 559.655 82.8202C557.782 84.8225 555.425 86.3834 552.583 87.503C549.762 88.6011 546.543 89.1501 542.926 89.1501Z" fill="white"/>
<path d="M508.556 22.0088V88.1495H498.9V22.0088H508.556Z" fill="white"/>
<path d="M485.909 22.0088V88.1495H476.253V22.0088H485.909Z" fill="white"/>
<path d="M444.256 89.1501C439.369 89.1501 435.16 88.1059 431.629 86.0174C428.119 83.9075 425.407 80.9471 423.49 77.1362C421.596 73.3039 420.648 68.8148 420.648 63.6691C420.648 58.588 421.596 54.1097 423.49 50.2343C425.407 46.3588 428.076 43.3338 431.5 41.1593C434.944 38.9847 438.971 37.8975 443.578 37.8975C446.377 37.8975 449.09 38.3604 451.717 39.2862C454.343 40.212 456.701 41.6652 458.789 43.646C460.878 45.6268 462.525 48.1997 463.73 51.3646C464.936 54.508 465.539 58.3296 465.539 62.8294V66.2527H426.106V59.0186H456.076C456.076 56.478 455.56 54.2281 454.526 52.2689C453.493 50.2881 452.039 48.7271 450.166 47.586C448.315 46.4449 446.14 45.8744 443.643 45.8744C440.93 45.8744 438.562 46.5418 436.538 47.8767C434.535 49.19 432.985 50.9125 431.887 53.0439C430.811 55.1539 430.272 57.4469 430.272 59.9228V65.5745C430.272 68.8902 430.854 71.7106 432.016 74.0359C433.201 76.3611 434.848 78.1374 436.958 79.3646C439.068 80.5703 441.533 81.1731 444.353 81.1731C446.183 81.1731 447.852 80.9148 449.359 80.3981C450.866 79.8598 452.169 79.0632 453.267 78.0082C454.365 76.9532 455.204 75.6507 455.786 74.1005L464.925 75.7475C464.193 78.4388 462.88 80.7964 460.985 82.8202C459.112 84.8225 456.755 86.3834 453.913 87.503C451.092 88.6011 447.873 89.1501 444.256 89.1501Z" fill="white"/>
<path d="M378.18 58.6956V88.1489H368.524V38.5434H377.792V46.6172H378.406C379.547 43.9905 381.334 41.8805 383.767 40.2873C386.222 38.6941 389.311 37.8975 393.036 37.8975C396.416 37.8975 399.376 38.608 401.917 40.0289C404.458 41.4284 406.428 43.5168 407.827 46.2942C409.227 49.0716 409.926 52.5057 409.926 56.5964V88.1489H400.27V57.7591C400.27 54.1635 399.333 51.3538 397.46 49.33C395.587 47.2846 393.014 46.2619 389.742 46.2619C387.503 46.2619 385.511 46.7464 383.767 47.7152C382.045 48.6841 380.677 50.1051 379.666 51.9782C378.675 53.8298 378.18 56.0689 378.18 58.6956Z" fill="white"/>
<path d="M345.877 88.1493V38.5438H355.533V88.1493H345.877ZM350.753 30.8898C349.074 30.8898 347.631 30.33 346.426 29.2104C345.241 28.0693 344.649 26.7129 344.649 25.1412C344.649 23.548 345.241 22.1916 346.426 21.072C347.631 19.9309 349.074 19.3604 350.753 19.3604C352.433 19.3604 353.864 19.9309 355.048 21.072C356.254 22.1916 356.857 23.548 356.857 25.1412C356.857 26.7129 356.254 28.0693 355.048 29.2104C353.864 30.33 352.433 30.8898 350.753 30.8898Z" fill="white"/>
<path d="M335.195 38.5438V46.2947H308.099V38.5438H335.195ZM315.366 26.6592H325.022V73.5842C325.022 75.4574 325.302 76.8676 325.862 77.8149C326.421 78.7407 327.143 79.3759 328.025 79.7203C328.93 80.0433 329.909 80.2048 330.964 80.2048C331.739 80.2048 332.417 80.1509 332.999 80.0433C333.58 79.9356 334.032 79.8495 334.355 79.7849L336.099 87.7619C335.539 87.9772 334.743 88.1925 333.709 88.4078C332.676 88.6446 331.384 88.7738 329.834 88.7953C327.293 88.8384 324.925 88.3862 322.729 87.4389C320.533 86.4916 318.757 85.0275 317.4 83.0468C316.044 81.066 315.366 78.5792 315.366 75.5865V26.6592Z" fill="white"/>
<path d="M267.343 58.6956V88.1489H257.686V38.5434H266.955V46.6172H267.569C268.71 43.9905 270.497 41.8805 272.93 40.2873C275.384 38.6941 278.474 37.8975 282.198 37.8975C285.579 37.8975 288.539 38.608 291.08 40.0289C293.62 41.4284 295.59 43.5168 296.99 46.2942C298.389 49.0716 299.089 52.5057 299.089 56.5964V88.1489H289.433V57.7591C289.433 54.1635 288.496 51.3538 286.623 49.33C284.75 47.2846 282.177 46.2619 278.904 46.2619C276.665 46.2619 274.674 46.7464 272.93 47.7152C271.207 48.6841 269.84 50.1051 268.828 51.9782C267.838 53.8298 267.343 56.0689 267.343 58.6956Z" fill="white"/>
<path d="M225.69 89.1501C220.802 89.1501 216.593 88.1059 213.062 86.0174C209.553 83.9075 206.84 80.9471 204.924 77.1362C203.029 73.3039 202.082 68.8148 202.082 63.6691C202.082 58.588 203.029 54.1097 204.924 50.2343C206.84 46.3588 209.51 43.3338 212.933 41.1593C216.378 38.9847 220.404 37.8975 225.011 37.8975C227.81 37.8975 230.523 38.3604 233.15 39.2862C235.777 40.212 238.134 41.6652 240.223 43.646C242.311 45.6268 243.958 48.1997 245.164 51.3646C246.369 54.508 246.972 58.3296 246.972 62.8294V66.2527H207.54V59.0186H237.51C237.51 56.478 236.993 54.2281 235.96 52.2689C234.926 50.2881 233.473 48.7271 231.6 47.586C229.748 46.4449 227.574 45.8744 225.076 45.8744C222.363 45.8744 219.995 46.5418 217.971 47.8767C215.969 49.19 214.419 50.9125 213.321 53.0439C212.244 55.1539 211.706 57.4469 211.706 59.9228V65.5745C211.706 68.8902 212.287 71.7106 213.45 74.0359C214.634 76.3611 216.281 78.1374 218.391 79.3646C220.501 80.5703 222.966 81.1731 225.787 81.1731C227.617 81.1731 229.285 80.9148 230.792 80.3981C232.299 79.8598 233.602 79.0632 234.7 78.0082C235.798 76.9532 236.638 75.6507 237.219 74.1005L246.359 75.7475C245.627 78.4388 244.313 80.7964 242.419 82.8202C240.545 84.8225 238.188 86.3834 235.346 87.503C232.525 88.6011 229.307 89.1501 225.69 89.1501Z" fill="white"/>
<path d="M145.291 88.1495V81.4967L180.073 30.5993H145V22.0088H192.28V28.6616L157.498 79.559H192.571V88.1495H145.291Z" fill="white"/>
<path d="M620.173 60.9374L611.191 88.1356H595.47L621.088 16.2725H638.139L663.508 88.1356H646.873L638.555 60.9374M638.555 60.9374L629.489 32.741L620.173 60.9374" fill="#3FF1EF"/>
<path d="M686.479 88.1356H671.508V16.2725H686.479V88.1356Z" fill="#3FF1EF"/>
<defs>
<linearGradient id="paint0_linear_368_491" x1="89.9751" y1="99.3468" x2="-106.231" y2="-103.165" gradientUnits="userSpaceOnUse">
<stop stop-color="white"/>
<stop offset="1" stop-color="#0E4C99"/>
<stop offset="1" stop-color="white"/>
</linearGradient>
<linearGradient id="paint1_linear_368_491" x1="14.0198" y1="17.1923" x2="210.226" y2="219.704" gradientUnits="userSpaceOnUse">
<stop stop-color="white"/>
<stop offset="1" stop-color="#0E4C99"/>
<stop offset="1" stop-color="white"/>
</linearGradient>
<linearGradient id="paint2_linear_368_491" x1="55.1221" y1="-100.179" x2="55.1221" y2="119.244" gradientUnits="userSpaceOnUse">
<stop offset="0.235577" stop-color="#ECEAFF"/>
<stop offset="0.55" stop-color="#0AF0CF"/>
<stop offset="0.75" stop-color="#3B328D"/>
<stop offset="0.9" stop-color="#26205A"/>
<stop offset="0.980769" stop-color="#111A35"/>
</linearGradient>
<linearGradient id="paint3_linear_368_491" x1="28.5208" y1="11.0036" x2="4.77545" y2="72.3458" gradientUnits="userSpaceOnUse">
<stop stop-color="#1E4E97"/>
<stop offset="1" stop-color="#1C2652"/>
</linearGradient>
<linearGradient id="paint4_linear_368_491" x1="132.925" y1="57.3664" x2="59.7035" y2="110.15" gradientUnits="userSpaceOnUse">
<stop stop-color="#0AF0CF"/>
<stop offset="1" stop-color="#3ABCED"/>
</linearGradient>
</defs>
</svg>
