<svg width="717" height="111" viewBox="0 0 717 111" fill="none" xmlns="http://www.w3.org/2000/svg">
<path d="M49.8386 74.2799L44.6132 84.0145L55.8003 84.0149L101.766 84.0146L105.946 74.6218L60.8817 74.6218L90.0051 16.7029L82.3713 10.5958L49.8386 74.2799Z" fill="#162345"/>
<path d="M54.1558 42.2553L59.3812 32.5208L48.1941 32.5203L8.17572 32.5201L5.52383 41.9134L43.1128 41.9134L17.0848 94.4709L24.7763 100.63L54.1558 42.2553Z" fill="#162345"/>
<path d="M100.318 55.0898C100.318 30.1292 80.0829 9.89466 55.1223 9.89453C30.1616 9.89453 9.927 30.1291 9.927 55.0898C9.92713 80.0504 30.1617 100.285 55.1223 100.285C80.0828 100.285 100.317 80.0504 100.318 55.0898ZM110.211 55.0898C110.211 85.5146 85.5471 110.179 55.1223 110.179C24.6974 110.179 0.0326026 85.5147 0.0324707 55.0898C0.0324707 24.6649 24.6973 0 55.1223 0C85.5472 0.00013196 110.211 24.665 110.211 55.0898Z" fill="#162345"/>
<path d="M2.63177 62.6168C5.92974 69.8723 10.3226 74.5555 13.6536 78.0909C16.1791 80.771 18.9141 83.2457 21.8325 85.4916C15.8579 79.0021 11.9188 70.9019 10.5036 62.1952C9.08845 53.4884 10.2594 44.5578 13.8712 36.5101C18.7456 23.8789 28.1119 16.2078 32.2211 12.8439C45.2745 2.16503 50.2676 0.885424 52.0815 0.19285C52.3388 0.0873154 50.947 0.00816735 48.4603 0.278601C47.9459 0.34456 47.4314 0.39732 46.9301 0.476471L46.5079 0.542414C45.7626 0.654545 45.0239 0.793084 44.2917 0.938195L43.8036 1.03711C43.144 1.17562 42.4844 1.32733 41.8248 1.48563L40.974 1.70331C40.3935 1.85501 39.8262 2.01991 39.2524 2.1914L38.2828 2.49483C37.6232 2.6993 36.9636 2.91697 36.337 3.15442L35.9413 3.29951C25.4075 7.21726 16.3213 14.2584 9.8983 23.4809C3.47531 32.7034 0.0218961 43.6675 0 54.9062C0.105535 55.4668 0.22426 56.0143 0.369371 56.5486C0.994705 58.617 1.75035 60.6438 2.63177 62.6168Z" fill="#162345"/>
<path d="M97.6832 86.8051C100.519 79.3385 100.691 72.9206 100.836 68.066C100.942 64.3852 100.755 60.7018 100.275 57.0508C99.907 65.8618 96.9606 74.3709 91.8016 81.5232C86.6426 88.6754 79.4979 94.1562 71.2533 97.286C58.8661 102.774 46.8483 101.573 41.5715 101.046C24.7915 99.3703 20.359 96.7451 18.5847 95.9536C18.3274 95.8415 19.2443 96.8837 21.223 98.4535C21.632 98.7701 22.0344 99.1131 22.4499 99.3967L22.7929 99.6474C23.3997 100.089 24.0131 100.518 24.6397 100.934L25.0553 101.211C25.6093 101.573 26.1766 101.923 26.7438 102.266L27.5024 102.714C28.0169 103.018 28.5379 103.302 29.0656 103.585L29.9627 104.06C30.5695 104.37 31.1829 104.68 31.8029 104.97L32.1855 105.142C42.4057 109.821 53.8109 111.268 64.8757 109.288C75.9404 107.309 86.137 101.999 94.1016 94.0672C94.4182 93.5989 94.7216 93.124 94.9921 92.6425C96.0123 90.7559 96.9112 88.8061 97.6832 86.8051Z" fill="#162345"/>
<path d="M542.926 89.1511C538.039 89.1511 533.83 88.1068 530.299 86.0184C526.789 83.9085 524.077 80.9481 522.16 77.1372C520.266 73.3048 519.318 68.8158 519.318 63.6701C519.318 58.5889 520.266 54.1107 522.16 50.2352C524.077 46.3598 526.746 43.3348 530.17 41.1603C533.614 38.9857 537.641 37.8984 542.248 37.8984C545.047 37.8984 547.76 38.3613 550.386 39.2871C553.013 40.2129 555.371 41.6662 557.459 43.647C559.548 45.6278 561.195 48.2006 562.4 51.3656C563.606 54.509 564.209 58.3306 564.209 62.8304V66.2537H524.776V59.0196H554.746C554.746 56.479 554.23 54.2291 553.196 52.2698C552.163 50.2891 550.709 48.7281 548.836 47.587C546.985 46.4459 544.81 45.8754 542.313 45.8754C539.6 45.8754 537.231 46.5428 535.208 47.8777C533.205 49.191 531.655 50.9134 530.557 53.0449C529.481 55.1549 528.942 57.4478 528.942 59.9238V65.5755C528.942 68.8911 529.524 71.7116 530.686 74.0369C531.87 76.3621 533.518 78.1384 535.628 79.3656C537.737 80.5713 540.203 81.1741 543.023 81.1741C544.853 81.1741 546.522 80.9158 548.029 80.399C549.536 79.8608 550.839 79.0642 551.937 78.0092C553.035 76.9542 553.874 75.6516 554.456 74.1015L563.595 75.7485C562.863 78.4398 561.55 80.7973 559.655 82.8212C557.782 84.8235 555.425 86.3844 552.583 87.504C549.762 88.602 546.543 89.1511 542.926 89.1511Z" fill="#162345"/>
<path d="M508.556 22.0088V88.1495H498.9V22.0088H508.556Z" fill="#162345"/>
<path d="M485.909 22.0088V88.1495H476.253V22.0088H485.909Z" fill="#162345"/>
<path d="M444.256 89.1511C439.369 89.1511 435.16 88.1068 431.629 86.0184C428.119 83.9085 425.407 80.9481 423.49 77.1372C421.596 73.3048 420.648 68.8158 420.648 63.6701C420.648 58.5889 421.596 54.1107 423.49 50.2352C425.407 46.3598 428.076 43.3348 431.5 41.1603C434.944 38.9857 438.971 37.8984 443.578 37.8984C446.377 37.8984 449.09 38.3613 451.717 39.2871C454.343 40.2129 456.701 41.6662 458.789 43.647C460.878 45.6278 462.525 48.2006 463.73 51.3656C464.936 54.509 465.539 58.3306 465.539 62.8304V66.2537H426.106V59.0196H456.076C456.076 56.479 455.56 54.2291 454.526 52.2698C453.493 50.2891 452.039 48.7281 450.166 47.587C448.315 46.4459 446.14 45.8754 443.643 45.8754C440.93 45.8754 438.562 46.5428 436.538 47.8777C434.535 49.191 432.985 50.9134 431.887 53.0449C430.811 55.1549 430.272 57.4478 430.272 59.9238V65.5755C430.272 68.8911 430.854 71.7116 432.016 74.0369C433.201 76.3621 434.848 78.1384 436.958 79.3656C439.068 80.5713 441.533 81.1741 444.353 81.1741C446.183 81.1741 447.852 80.9158 449.359 80.399C450.866 79.8608 452.169 79.0642 453.267 78.0092C454.365 76.9542 455.204 75.6516 455.786 74.1015L464.925 75.7485C464.193 78.4398 462.88 80.7973 460.985 82.8212C459.112 84.8235 456.755 86.3844 453.913 87.504C451.092 88.602 447.873 89.1511 444.256 89.1511Z" fill="#162345"/>
<path d="M378.18 58.6966V88.1499H368.524V38.5443H377.792V46.6182H378.406C379.547 43.9915 381.334 41.8815 383.767 40.2883C386.222 38.6951 389.311 37.8984 393.036 37.8984C396.416 37.8984 399.376 38.6089 401.917 40.0299C404.458 41.4294 406.428 43.5178 407.827 46.2952C409.227 49.0726 409.926 52.5067 409.926 56.5974V88.1499H400.27V57.76C400.27 54.1645 399.333 51.3548 397.46 49.331C395.587 47.2856 393.014 46.2629 389.742 46.2629C387.503 46.2629 385.511 46.7473 383.767 47.7162C382.045 48.6851 380.677 50.1061 379.666 51.9792C378.675 53.8308 378.18 56.0699 378.18 58.6966Z" fill="#162345"/>
<path d="M345.877 88.1493V38.5438H355.533V88.1493H345.877ZM350.753 30.8898C349.074 30.8898 347.631 30.33 346.426 29.2104C345.241 28.0693 344.649 26.7129 344.649 25.1412C344.649 23.548 345.241 22.1916 346.426 21.072C347.631 19.9309 349.074 19.3604 350.753 19.3604C352.433 19.3604 353.864 19.9309 355.048 21.072C356.254 22.1916 356.857 23.548 356.857 25.1412C356.857 26.7129 356.254 28.0693 355.048 29.2104C353.864 30.33 352.433 30.8898 350.753 30.8898Z" fill="#162345"/>
<path d="M335.195 38.5438V46.2947H308.099V38.5438H335.195ZM315.366 26.6592H325.022V73.5842C325.022 75.4574 325.302 76.8676 325.862 77.8149C326.421 78.7407 327.143 79.3759 328.025 79.7203C328.93 80.0433 329.909 80.2048 330.964 80.2048C331.739 80.2048 332.417 80.1509 332.999 80.0433C333.58 79.9356 334.032 79.8495 334.355 79.7849L336.099 87.7619C335.539 87.9772 334.743 88.1925 333.709 88.4078C332.676 88.6446 331.384 88.7738 329.834 88.7953C327.293 88.8384 324.925 88.3862 322.729 87.4389C320.533 86.4916 318.757 85.0275 317.4 83.0468C316.044 81.066 315.366 78.5792 315.366 75.5865V26.6592Z" fill="#162345"/>
<path d="M267.343 58.6966V88.1499H257.686V38.5443H266.955V46.6182H267.569C268.71 43.9915 270.497 41.8815 272.93 40.2883C275.384 38.6951 278.474 37.8984 282.198 37.8984C285.579 37.8984 288.539 38.6089 291.08 40.0299C293.62 41.4294 295.59 43.5178 296.99 46.2952C298.389 49.0726 299.089 52.5067 299.089 56.5974V88.1499H289.433V57.76C289.433 54.1645 288.496 51.3548 286.623 49.331C284.75 47.2856 282.177 46.2629 278.904 46.2629C276.665 46.2629 274.674 46.7473 272.93 47.7162C271.207 48.6851 269.84 50.1061 268.828 51.9792C267.838 53.8308 267.343 56.0699 267.343 58.6966Z" fill="#162345"/>
<path d="M225.69 89.1511C220.802 89.1511 216.593 88.1068 213.062 86.0184C209.553 83.9085 206.84 80.9481 204.924 77.1372C203.029 73.3048 202.082 68.8158 202.082 63.6701C202.082 58.5889 203.029 54.1107 204.924 50.2352C206.84 46.3598 209.51 43.3348 212.933 41.1603C216.378 38.9857 220.404 37.8984 225.011 37.8984C227.81 37.8984 230.523 38.3613 233.15 39.2871C235.777 40.2129 238.134 41.6662 240.223 43.647C242.311 45.6278 243.958 48.2006 245.164 51.3656C246.369 54.509 246.972 58.3306 246.972 62.8304V66.2537H207.54V59.0196H237.51C237.51 56.479 236.993 54.2291 235.96 52.2698C234.926 50.2891 233.473 48.7281 231.6 47.587C229.748 46.4459 227.574 45.8754 225.076 45.8754C222.363 45.8754 219.995 46.5428 217.971 47.8777C215.969 49.191 214.419 50.9134 213.321 53.0449C212.244 55.1549 211.706 57.4478 211.706 59.9238V65.5755C211.706 68.8911 212.287 71.7116 213.45 74.0369C214.634 76.3621 216.281 78.1384 218.391 79.3656C220.501 80.5713 222.966 81.1741 225.787 81.1741C227.617 81.1741 229.285 80.9158 230.792 80.399C232.299 79.8608 233.602 79.0642 234.7 78.0092C235.798 76.9542 236.638 75.6516 237.219 74.1015L246.359 75.7485C245.627 78.4398 244.313 80.7973 242.419 82.8212C240.545 84.8235 238.188 86.3844 235.346 87.504C232.525 88.602 229.307 89.1511 225.69 89.1511Z" fill="#162345"/>
<path d="M145.291 88.1495V81.4967L180.073 30.5993H145V22.0088H192.28V28.6616L157.498 79.559H192.571V88.1495H145.291Z" fill="#162345"/>
<path d="M620.173 60.9374L611.191 88.1356H595.47L621.088 16.2725H638.139L663.508 88.1356H646.873L638.555 60.9374M638.555 60.9374L629.489 32.741L620.173 60.9374" fill="#3FF1EF"/>
<path d="M686.479 88.1356H671.508V16.2725H686.479V88.1356Z" fill="#3FF1EF"/>
</svg>
